<svg height="512" viewBox="0 0 60 60" width="512" xmlns="http://www.w3.org/2000/svg"><circle cx="34.131" cy="13.505" transform="rotate(-45 34.131 13.513)" r="4.916"/><path d="m17.885 50.17 3.614-.772a10.307 10.307 0 0 0 7.305-6.012l.865-2.03 2.587.883a5.744 5.744 0 0 1 3.682 3.845l.968 3.289a2.811 2.811 0 0 0 2.707 2.038c.11 0 .222-.008.342-.026a2.821 2.821 0 0 0 2.398-3.528l-1.053-4a11.993 11.993 0 0 0-4.291-6.44l-3.092-2.364 1.182-6.535a8.532 8.532 0 0 0 8.933.043l.548-.325a2.351 2.351 0 0 0 .796-3.22 2.358 2.358 0 0 0-3.057-.891 3.403 3.403 0 0 1-4.154-.925l-.488-.617a6.864 6.864 0 0 0-4.376-2.526l-3.709-.549a6.871 6.871 0 0 0-3.794.514l-.6.257c-4.436 1.962-7.22 6.526-6.92 11.365.035.617.334 1.19.814 1.585.48.385 1.096.565 1.713.48a2.234 2.234 0 0 0 1.91-2.125 6.573 6.573 0 0 1 2.997-5.267l-3.288 15.725-6.244 2.449a2.951 2.951 0 0 0-1.893 2.766c0 .9.403 1.748 1.105 2.313.703.565 1.61.788 2.493.6z"/></svg>