<svg height="393.982" viewBox="0 0 106.351 98.496" width="425.402" xmlns="http://www.w3.org/2000/svg"><path d="M.44 4.66a4.57 4.57 0 0 1 1.41-3.295c1.882-1.82 4.928-1.82 6.808 0l44.737 43.3 44.738-43.3c1.881-1.82 4.927-1.82 6.807 0a4.552 4.552 0 0 1 0 6.589L56.8 54.547c-1.881 1.82-4.927 1.82-6.807 0L1.85 7.954A4.57 4.57 0 0 1 .44 4.66Z" style="stroke-width:1.18403"/><path d="M0 47.242a4.57 4.57 0 0 1 1.41-3.294c1.882-1.82 4.928-1.82 6.808 0l44.737 43.3 44.738-43.3c1.881-1.82 4.927-1.82 6.807 0a4.552 4.552 0 0 1 0 6.589L56.36 97.13c-1.881 1.82-4.927 1.82-6.807 0L1.41 50.537A4.57 4.57 0 0 1 0 47.242Z" style="stroke-width:1.18403"/><path d="M.44 4.66a4.57 4.57 0 0 1 1.41-3.295c1.882-1.82 4.928-1.82 6.808 0l44.737 43.3 44.738-43.3c1.881-1.82 4.927-1.82 6.807 0a4.552 4.552 0 0 1 0 6.589L56.8 54.547c-1.881 1.82-4.927 1.82-6.807 0L1.85 7.954A4.57 4.57 0 0 1 .44 4.66Z" style="stroke-width:1.18403"/></svg>