<svg xmlns="http://www.w3.org/2000/svg" viewBox="0 0 503.664 503.664" style="enable-background:new 0 0 503.664 503.664" xml:space="preserve"><path d="M467.98 39.376H35.792C16.112 39.376.1 55.384.1 75.064L0 369.52c0 19.676 16.004 35.748 35.684 35.748h141.4v35.408h-27.612c-2.172 0-3.864 1.848-3.864 4.02v15.532c0 2.172 1.688 4.06 3.864 4.06h204c2.164 0 4.584-1.888 4.584-4.06v-15.532c0-2.172-2.42-4.02-4.584-4.02H326.58v-35.408h141.304c19.664 0 35.688-16.072 35.688-35.748l.092-294.424c.004-19.684-16.004-35.72-35.684-35.72zM251.34 377.524c-6.524 0-11.804-5.284-11.804-11.804 0-6.516 5.28-11.8 11.804-11.8 6.52 0 11.804 5.284 11.804 11.8 0 6.52-5.28 11.804-11.804 11.804zm220.812-50.944H31.512V70.848h440.64V326.58z"/></svg>