<?xml version="1.0" ?>
<svg xmlns="http://www.w3.org/2000/svg" xmlns:xlink="http://www.w3.org/1999/xlink" version="1.1" id="Capa_1" x="0px" y="0px" viewBox="0 0 486.4 486.4" style="enable-background:new 0 0 486.4 486.4;" xml:space="preserve">
	<g>
		<g>
			<path d="M320,0H115.2C87.04,0,64,23.04,64,51.2v384c0,28.16,23.04,51.2,51.2,51.2h256c28.16,0,51.2-23.04,51.2-51.2V102.4L320,0z     M166.4,153.6h102.4c15.36,0,25.6,10.24,25.6,25.6s-10.24,25.6-25.6,25.6H166.4c-15.36,0-25.6-10.24-25.6-25.6    S153.6,153.6,166.4,153.6z M320,409.6H166.4c-15.36,0-25.6-10.24-25.6-25.6c0-15.36,10.24-25.6,25.6-25.6H320    c15.36,0,25.6,10.24,25.6,25.6C345.6,396.8,335.36,409.6,320,409.6z M320,307.2H166.4c-15.36,0-25.6-10.24-25.6-25.6    c0-15.36,10.24-25.6,25.6-25.6H320c15.36,0,25.6,10.24,25.6,25.6C345.6,294.4,335.36,307.2,320,307.2z"/>
		</g>
	</g>
</svg>
