<svg xmlns="http://www.w3.org/2000/svg" width="124.813" height="124.813" style="enable-background:new 0 0 124.813 124.813" xml:space="preserve"><path d="m48.083 80.355-1.915 11.374a4.158 4.158 0 0 0 1.65 4.05 4.15 4.15 0 0 0 4.361.32l10.226-5.338L72.631 96.1a4.184 4.184 0 0 0 1.924.472c.859 0 1.716-.269 2.439-.792a4.152 4.152 0 0 0 1.651-4.05l-1.913-11.374 8.234-8.077a4.159 4.159 0 0 0 1.044-4.247 4.152 4.152 0 0 0-3.341-2.823l-11.41-1.692-5.139-10.329a4.147 4.147 0 0 0-3.716-2.303 4.16 4.16 0 0 0-3.718 2.303l-5.134 10.329-11.41 1.691a4.147 4.147 0 0 0-3.339 2.823 4.147 4.147 0 0 0 1.042 4.247l8.238 8.077z"/><path d="M111.443 13.269H98.378V6.022A6.022 6.022 0 0 0 92.355 0H91.4a6.021 6.021 0 0 0-6.021 6.022v7.247H39.282V6.022A6.022 6.022 0 0 0 33.261 0h-.956a6.021 6.021 0 0 0-6.021 6.022v7.247H13.371C6.538 13.269.977 18.828.977 25.663v86.757c0 6.831 5.561 12.394 12.394 12.394h98.073c6.832 0 12.394-5.562 12.394-12.394V25.663c-.001-6.835-5.563-12.394-12.395-12.394zm-1.617 97.534H14.988V43.268h94.838v67.535z"/></svg>
