<svg id="Layer_1" height="512" viewBox="0 0 677.869 423.1488" width="512" xmlns="http://www.w3.org/2000/svg"><g><path d="m469.1997 69.1761c.0244 0 .0479.0037.0723.0037l.299-4.6128c.4894.363 1.0837.5962 1.7373.6389.0729.0049.1449.0072.2172.0072 1.7144 0 3.157-1.3318 3.2703-3.067 1.7437-26.6808-4.2896-33.0443-5.5166-34.0488-.5824-.4767-1.2793-.7163-1.9773-.7373-.1101-.0117-.2219-.0183-.3356-.0183h-15.844c-.1134 0-.2251.0066-.3352.0183-.6981.021-1.3949.2606-1.9772.7373-1.2271 1.0045-7.2605 7.368-5.5167 34.0488.1134 1.7352 1.5559 3.067 3.2704 3.067.072 0 .1442-.0023.217-.0072.6532-.0427 1.2476-.2756 1.7369-.6387l1.1124 17.166c3.4216-7.3996 10.8962-12.5571 19.5698-12.5571z"/><ellipse cx="459.044" cy="15.778" rx="9.227" ry="9.227" transform="matrix(.383 -.924 .924 .383 268.799 433.841)"/><path d="m528.4006 116.1177 1.8933-29.2158c.5576.4136 1.2346.6792 1.9792.7279.083.0055.165.0082.2473.0082 1.9531 0 3.5966-1.5173 3.7256-3.4941 1.9866-30.3958-4.8867-37.6453-6.2847-38.7898-.6635-.5428-1.4573-.8159-2.2526-.8398-.1255-.0133-.2528-.0208-.3823-.0208h-18.0502c-.129 0-.2563.0074-.3818.0208-.7952.0239-1.5891.297-2.2524.8398-1.3979 1.1445-8.2712 8.394-6.2848 38.7898.129 1.9768 1.7726 3.4941 3.7257 3.4941.082 0 .1643-.0027.2473-.0082.7441-.0487 1.4211-.3141 1.9788-.7277l1.4565 22.4758c.9291-.0989 1.8716-.1523 2.8264-.1523 6.8495 0 13.1004 2.6119 17.8087 6.8921z"/><circle cx="518.302" cy="31.319" r="10.512"/><path d="m298.3728 49.3939c.1008 1.5416 1.3823 2.7249 2.9056 2.7249.0641 0 .1281-.0021.1929-.0063.5803-.0378 1.1083-.245 1.5431-.5675l1.984 30.6149c.1608 2.4832 2.3043 4.3645 4.7864 4.2036.9867-.0638 1.8755-.4443 2.5822-1.0313.7065.5869 1.5955.9674 2.582 1.0313 2.4818.1609 4.6256-1.7205 4.7864-4.2036l1.9841-30.615c.4347.3225.9626.5298 1.5435.5676.0647.0043.1288.0063.1929.0063 1.5232 0 2.8048-1.1832 2.9055-2.7249 1.5492-23.7046-3.811-29.3582-4.9014-30.2507-.5173-.4233-1.1365-.6364-1.7566-.655-.0979-.0103-.1971-.0162-.2981-.0162h-14.0767c-.1007 0-.2.006-.2979.0162-.6201.0187-1.2393.2317-1.7566.655-1.0901.8925-6.4504 6.5461-4.9013 30.2507z"/><circle cx="312.367" cy="8.198" r="8.198"/><path d="m135.8774 49.3939c.1007 1.5416 1.3823 2.7249 2.9055 2.7249.0641 0 .1282-.0021.1929-.0063.5803-.0378 1.1084-.245 1.5432-.5675l1.984 30.6149c.1608 2.4832 2.3042 4.3645 4.7863 4.2036.9868-.0638 1.8755-.4443 2.5823-1.0313.7065.5869 1.5955.9674 2.582 1.0313 2.4818.1609 4.6255-1.7205 4.7864-4.2036l1.984-30.615c.4348.3225.9628.5298 1.5436.5676.0647.0043.1287.0063.1927.0063 1.5233 0 2.8048-1.1832 2.9056-2.7249 1.5491-23.7046-3.8112-29.3582-4.9014-30.2507-.5173-.4233-1.1365-.6364-1.7566-.655-.0979-.0103-.1971-.0162-.2982-.0162h-14.0765c-.1007 0-.2.006-.2979.0162-.6201.0187-1.2393.2317-1.7566.655-1.0902.8925-6.4505 6.5461-4.9013 30.2507z"/><path d="m149.8716 16.3958c4.5273 0 8.1978-3.6702 8.1978-8.1979s-3.6704-8.1979-8.1978-8.1979c-4.5281 0-8.198 3.6702-8.198 8.1979 0 4.5276 3.6699 8.1979 8.198 8.1979z"/><path d="m260.7162 72.2128.4955-7.6459c.4894.363 1.0837.5962 1.7373.6389.0729.0049.145.0072.217.0072 1.7145 0 3.157-1.3318 3.2704-3.067 1.7438-26.6808-4.2897-33.0443-5.5167-34.0488-.5823-.4767-1.2791-.7163-1.9772-.7373-.1102-.0117-.2218-.0183-.3356-.0183h-15.844c-.1134 0-.2251.0066-.3352.0183-.698.021-1.395.2606-1.9773.7373-1.2271 1.0045-7.2603 7.368-5.5166 34.0488.1133 1.7352 1.5559 3.067 3.2703 3.067.0721 0 .1443-.0023.2172-.0072.6532-.0427 1.2474-.2756 1.7369-.6387l2.233 34.4587c.181 2.7949 2.5936 4.9125 5.3873 4.7314 1.1106-.0719 2.111-.5002 2.9063-1.1609.7954.6606 1.7959 1.089 2.9064 1.1609.3131.0203.6193.0023.9202-.033-2.7389-3.6165-4.3846-8.1045-4.3846-12.9805-.0001-7.8805 4.2622-14.7676 10.5894-18.5309z"/><path d="m259.9121 15.7776c0-5.0961-4.1315-9.2272-9.2273-9.2272-5.0964 0-9.2271 4.131-9.2271 9.2272 0 5.0963 4.1306 9.2272 9.2271 9.2272 5.0958 0 9.2273-4.131 9.2273-9.2272z"/><path d="m637.1917 80.4197c1.3164-1.0776 2.9092-1.6851 4.6133-1.7603.2295-.021.4609-.0322.6963-.0322h2.0193c.0063-.1917.0088-.3722.0144-.5618-4.2039-3.0156-6.9575-7.9314-6.9575-13.4885 0-4.4349 1.7583-8.4597 4.6012-11.4409-1.6099-5.2618-3.5453-7.2319-4.2172-7.782-.6635-.5428-1.4573-.8159-2.2526-.8398-.1255-.0133-.2528-.0208-.3823-.0208h-18.0502c-.129 0-.2563.0074-.3818.0208-.7952.0239-1.5891.297-2.2524.8398-1.3979 1.1445-8.2712 8.394-6.2848 38.7898.129 1.9768 1.7726 3.4941 3.7257 3.4941.082 0 .1643-.0027.2473-.0082.7441-.0487 1.4211-.3141 1.9788-.7277l2.5439 39.2566c.2063 3.1841 2.9547 5.5966 6.1375 5.3904 1.2651-.0819 2.4049-.5698 3.311-1.3225.4603.3823.9819.6945 1.5488.9216-2.1719-38.1285 6.5672-48.4577 9.3413-50.7284z"/><circle cx="626.302" cy="31.319" r="10.512"/><path d="m216.3265 143.9376.009-.1389c-.0807.0459-.16.094-.2413.1389z"/><path d="m187.8224 106.0486c4.3138-4.2583 10.2345-6.8928 16.7606-6.8928 6.6072 0 12.595 2.699 16.9218 7.051 2.1619-.073 3.9601-1.7644 4.104-3.9685 2.264-34.6414-5.5695-42.9034-7.1627-44.2078-.756-.6189-1.6608-.9299-2.5671-.9573-.1429-.0151-.2881-.0237-.4357-.0237h-20.5714c-.1471 0-.2921.0085-.4351.0237-.9064.0273-1.8112.3384-2.5671.9573-1.5933 1.3043-9.4268 9.5664-7.1627 44.2078.1211 1.8558 1.4197 3.3389 3.1154 3.8103z"/><ellipse cx="205.158" cy="42.035" rx="11.98" ry="11.98" transform="matrix(.973 -.23 .23 .973 -4.17 48.26)"/><path d="m100.0515 162.671c1.5612-1.2781 3.3779-2.1184 5.3284-2.4882l.5894-9.0939c-3.098-4.3372-4.9285-9.6389-4.9285-15.3633 0-10.0424 5.6147-18.7976 13.8699-23.2919-1.0637-22.3104-6.9873-28.5135-8.4274-29.6925-.8585-.7026-1.886-1.0562-2.9152-1.0872-.1624-.0171-.3271-.0269-.4949-.0269h-23.3606c-.1672 0-.3319.0098-.4943.0269-1.0292.031-2.0566.3845-2.9152 1.0872-1.8093 1.4812-10.7048 10.8638-8.134 50.2021.1672 2.5586 2.2942 4.5222 4.822 4.5222.1062 0 .2125-.0035.3199-.0106.963-.0629 1.8394-.4066 2.5609-.9418l3.2925 50.8065c.2587 3.9924 3.6074 7.0377 7.5615 6.9817 3.6254-21.5757 10.4509-29.2773 13.3256-31.6303z"/><circle cx="91.393" cy="64.577" r="13.605"/><path d="m669.2722 82.7413c-.8585-.7026-1.886-1.0562-2.9152-1.0872-.1624-.0171-.3271-.0269-.4948-.0269h-23.3607c-.1671 0-.3319.0098-.4943.0269-1.0292.031-2.0566.3845-2.9152 1.0872-1.8092 1.4812-10.7048 10.8638-8.1339 50.2021.1671 2.5586 2.2939 4.5222 4.8219 4.5222.1063 0 .2125-.0035.3199-.0106.9631-.0629 1.8394-.4066 2.561-.9418l3.2925 50.8065c.2668 4.121 3.824 7.243 7.9431 6.9762 1.6375-.106 3.1125-.7375 4.2852-1.7114 1.1727.9739 2.6477 1.6055 4.2852 1.7114 4.1187.2668 7.6763-2.8552 7.9431-6.9762l3.2926-50.8068c.7216.5352 1.5978.8792 2.5614.942.1075.0071.2139.0106.3201.0106 2.5278 0 4.6548-1.9636 4.8219-4.5222 2.5711-39.3383-6.3245-48.7208-8.1338-50.202z"/><circle cx="654.182" cy="64.577" r="13.605"/><path d="m38.7768 82.7413c-.8586-.7026-1.886-1.0562-2.9153-1.0872-.1624-.0171-.327-.0269-.4948-.0269h-23.3606c-.167 0-.3318.0098-.4941.0269-1.0293.031-2.0566.3845-2.9153 1.0872-1.8092 1.4812-10.7049 10.8637-8.1338 50.2021.167 2.5586 2.2939 4.5222 4.8218 4.5222.1063 0 .2126-.0035.3201-.0106.9631-.0629 1.8394-.4066 2.561-.9418l3.2925 50.8065c.2668 4.121 3.824 7.243 7.9431 6.9762 1.6375-.106 3.1124-.7375 4.2852-1.7114 1.1726.9739 2.6477 1.6055 4.2852 1.7114 4.1185.2668 7.6763-2.8552 7.9431-6.9762l3.2925-50.8068c.7217.5352 1.5979.8792 2.5615.942.1074.0071.2139.0106.3201.0106 2.5278 0 4.6548-1.9636 4.8219-4.5222 2.5708-39.3383-6.3247-48.7208-8.1341-50.202z"/><circle cx="23.687" cy="64.577" r="13.605"/><path d="m468.1926 249.0533c-4.2695-65.3311 10.332-82.6348 14.9102-86.3823 2.0215-1.6548 4.4688-2.585 7.084-2.6953.3584-.0337.7207-.0518 1.0879-.0518h8.4956c0-.0061 0-.012-.0001-.0181-9.2306-4.1475-15.6781-13.4221-15.6781-24.1802 0-7.0815 2.7974-13.5181 7.3384-18.2767-1.2007-1.8358-2.2117-2.8131-2.7446-3.2494-1.1086-.9075-2.4354-1.3638-3.7644-1.4038-.2097-.0221-.4224-.0347-.6389-.0347h-30.1659c-.2157 0-.4286.0126-.6382.0347-1.329.04-2.6558.4963-3.7645 1.4038-1.7318 1.418-8.4872 8.4609-10.5167 32.6936 4.538 4.1206 16.4969 20.4783 12.8506 76.269-.0348.5341-.1198 1.053-.2277 1.563l1.5889 24.5175c.3447 5.3214 4.938 9.3531 10.2571 9.0084 2.1145-.1367 4.0192-.9523 5.5334-2.21 1.1428.9491 2.5083 1.6454 4.0181 1.9893-2.8412-2.03-4.7828-5.2607-5.0251-8.977z"/><circle cx="469.2" cy="90.744" r="17.568"/><path d="m237.7146 179.2869c-.0089-.1368-.0144-.2649-.0231-.4011-2.9301-21.2902-9.3008-27.8773-11.0642-29.321-1.2543-1.0265-2.7551-1.5427-4.2587-1.588-.2372-.025-.4778-.0392-.7229-.0392h-34.1259c-.244 0-.4847.0142-.722.0392-1.5034.0453-3.0044.5615-4.2585 1.588-2.4004 1.9651-13.3379 13.4536-12.5129 58.5925.3608 4.5565.592 9.553.6625 15.0227.3773 3.5994 3.4125 6.3278 7.0121 6.3278.1553 0 .3105-.0052.4675-.0155 1.407-.0918 2.687-.594 3.7412-1.3759l4.8098 74.2196c.3899 6.0201 5.5862 10.5811 11.6035 10.1912 2.392-.1548 4.5468-1.0774 6.2599-2.5002 1.713 1.4229 3.8678 2.3455 6.2599 2.5002 6.0166.3899 11.2136-4.171 11.6035-10.1912l4.8098-74.22c1.0542.7819 2.3342 1.2844 3.7419 1.3762.157.0103.3123.0155.4675.0155 3.6927 0 6.7998-2.8685 7.0439-6.6061 1.1749-17.9781.7103-31.6729-.5637-42.0715-.1112-.5026-.1966-1.0151-.2311-1.5432z"/><circle cx="204.583" cy="123.03" r="19.874"/><path d="m152.4977 165.7659c-1.4199-1.1621-3.1191-1.7466-4.8213-1.7979-.2686-.0283-.541-.0444-.8184-.0444h-38.6348c-.2764 0-.5488.0161-.8174.0444-1.7021.0513-3.4014.6357-4.8213 1.7979-2.9922 2.4497-17.7041 17.9668-13.4521 83.0264.2764 4.2314 3.7939 7.479 7.9746 7.479.1758 0 .3516-.0059.5293-.0176 1.5928-.104 3.042-.6724 4.2354-1.5576l5.4453 84.0259c.4414 6.8154 6.3242 11.979 13.1367 11.5376 2.708-.1753 5.1475-1.2197 7.0869-2.8306 1.9394 1.6108 4.3789 2.6553 7.0869 2.8306 6.8115.4414 12.6953-4.7222 13.1367-11.5376l5.4453-84.0264c1.1934.8853 2.6426 1.4541 4.2363 1.5581.1777.0117.3535.0176.5293.0176 4.1807 0 7.6982-3.2476 7.9746-7.479 4.2521-65.0596-10.4598-80.5767-13.452-83.0264z"/><circle cx="127.541" cy="135.725" r="22.5"/><path d="m400.2301 56.0965c1.1396-.9321 2.5156-1.4556 3.9854-1.519.05-.0046.1016-.0037.1519-.0071l.1725-2.6621c-2.4218-2.5896-3.9171-6.0559-3.9171-9.8728 0-5.6179 3.222-10.4877 7.9093-12.8876-1.3044-7.1283-3.562-9.4596-4.2279-10.0048-.5175-.4233-1.1365-.6364-1.7567-.655-.0978-.0103-.197-.0162-.2981-.0162h-14.0767c-.1006 0-.2.006-.2977.0162-.6202.0187-1.2394.2317-1.7567.655-1.0901.8926-6.4504 6.5461-4.9012 30.2507.1007 1.5416 1.3823 2.7249 2.9056 2.7249.064 0 .1279-.0021.1927-.0063.5803-.0378 1.1083-.245 1.5431-.5675l1.9841 30.6149c.1428 2.2056 1.8518 3.9277 3.9708 4.1746.6563-21.9144 6.3772-28.5682 8.4167-30.2379z"/><circle cx="395.211" cy="8.198" r="8.198"/><path d="m397.4634 105.9588c4.3059-4.2047 10.187-6.803 16.6664-6.803 6.6097 0 12.5996 2.7014 16.9269 7.0565.084.005.1676.0083.251.0083 2.2261 0 4.0989-1.7291 4.2461-3.9823 2.2639-34.6414-5.5695-42.9034-7.1626-44.2078-.7561-.6189-1.6609-.9299-2.5671-.9573-.1431-.0151-.2881-.0237-.4358-.0237h-20.5713c-.1472 0-.2922.0085-.4353.0237-.9063.0273-1.811.3384-2.5671.9573-1.5931 1.3043-9.4265 9.5664-7.1626 44.2078.1137 1.7441 1.2662 3.1633 2.8114 3.7205z"/><path d="m426.2715 143.9376.0244-.377c-.2163.1287-.4342.255-.655.377z"/><ellipse cx="415.103" cy="42.035" rx="11.98" ry="11.98" transform="matrix(.987 -.16 .16 .987 -1.373 67.035)"/><path d="m352.9971 187.6346c0 2.1312-.2368 4.2073-.6741 6.2092.6521.2393 1.3418.405 2.0706.4521 4.1187.2668 7.6763-2.8552 7.9432-6.9762l3.2926-50.8068c.7214.5352 1.5978.8792 2.5615.942.1074.0071.2136.0106.3199.0106 2.528 0 4.6548-1.9636 4.8219-4.5222 2.571-39.3384-6.3247-48.7209-8.1339-50.2021-.8585-.7026-1.886-1.0562-2.9152-1.0872-.1624-.0171-.3271-.0269-.4949-.0269h-23.3606c-.1671 0-.3318.0098-.4943.0269-1.0292.031-2.0566.3845-2.9152 1.0872-1.8093 1.4812-10.7048 10.8638-8.1339 50.2021.1671 2.5586 2.2941 4.5222 4.8219 4.5222.1062 0 .2125-.0035.3201-.0106.963-.0629 1.8394-.4066 2.5608-.9418l1.6049 24.7629c9.916 4.6397 16.8047 14.7072 16.8047 26.3586z"/><circle cx="350.109" cy="64.577" r="13.605"/><path d="m588.5928 98.5101c-.9961-.8152-2.1882-1.2252-3.3823-1.2612-.1885-.0198-.3796-.0311-.5741-.0311h-27.1034c-.194 0-.3851.0114-.5735.0311-1.1941.036-2.3862.446-3.3823 1.2612-2.0991 1.7186-12.4199 12.6042-9.437 58.2456.1938 2.9685 2.6615 5.2467 5.5944 5.2467.1234 0 .2467-.004.3713-.0123 1.1173-.073 2.134-.4717 2.9712-1.0928l3.8201 58.9468c.3097 4.7813 4.4366 8.4036 9.2158 8.094 1.8998-.123 3.6111-.8557 4.9717-1.9858 1.3606 1.1301 3.0719 1.8628 4.9717 1.9858 4.7784.3096 8.9061-3.3127 9.2158-8.094l3.8201-58.947c.8372.621 1.8539 1.02 2.9718 1.093.1248.0083.248.0123.3713.0123 2.9329 0 5.4006-2.2782 5.5945-5.2467 2.9828-45.6414-7.338-56.527-9.4371-58.2456z"/><circle cx="571.085" cy="77.436" r="15.784"/><path d="m291.7371 183.6353c.9097.6748 2.0117 1.1084 3.2212 1.2045.6042-6.3071 3.2316-12.0299 7.2229-16.516 1.1526-41.8203-8.8379-52.3541-11-54.1243-1.1086-.9075-2.4353-1.3638-3.7644-1.4038-.2097-.0221-.4224-.0347-.6389-.0347h-30.1658c-.2158 0-.4286.0126-.6382.0347-1.3291.04-2.6559.4963-3.7645 1.4038-2.3363 1.9127-13.8232 14.0283-10.5033 64.8264.2157 3.304 2.9622 5.8396 6.2264 5.8396.1373 0 .2745-.0045.4132-.0137 1.2437-.0812 2.3752-.5249 3.307-1.2162l4.2517 65.6069c.3446 5.3214 4.9379 9.3531 10.2571 9.0084 2.1144-.1367 4.0192-.9523 5.5333-2.21 1.5144 1.2577 3.4192 2.0732 5.5334 2.21.3208.0208.6384.024.953.0137 2.4586-19.4347 7.192-30.1396 11.0443-35.8735z"/><circle cx="271.695" cy="90.744" r="17.568"/><path d="m436.1741 149.5648c-1.2542-1.0265-2.7551-1.5427-4.2585-1.588-.2373-.025-.478-.0392-.7229-.0392h-34.126c-.2441 0-.4847.0142-.7219.0392-1.5035.0453-3.0044.5615-4.2587 1.588-2.6429 2.1638-15.6379 15.87-11.8822 73.3369.2441 3.7375 3.3511 6.6061 7.0439 6.6061.1553 0 .3105-.0052.4675-.0155 1.4069-.0918 2.687-.594 3.741-1.3759l4.8098 74.2196c.3899 6.0201 5.5862 10.5811 11.6038 10.1912 2.3918-.1548 4.5466-1.0774 6.2598-2.5002 1.7131 1.4229 3.8679 2.3455 6.2598 2.5002 6.0166.3899 11.2137-4.171 11.6036-10.1912l4.8099-74.22c1.054.7819 2.3341 1.2844 3.7418 1.3762.1571.0103.3123.0155.4675.0155 3.6927 0 6.7999-2.8685 7.0439-6.6061 3.7558-57.4668-9.2391-71.173-11.8821-73.3368z"/><circle cx="414.13" cy="123.03" r="19.874"/><path d="m535.5491 165.7659c-1.4199-1.1621-3.1191-1.7466-4.8213-1.7979-.2686-.0283-.541-.0444-.8184-.0444h-38.6348c-.2764 0-.5488.0161-.8174.0444-1.7021.0513-3.4014.6357-4.8213 1.7979-2.9922 2.4497-17.7041 17.9668-13.4521 83.0264.2764 4.2314 3.7939 7.479 7.9746 7.479.1758 0 .3516-.0059.5293-.0176 1.5928-.104 3.042-.6724 4.2354-1.5576l5.4453 84.0259c.4414 6.8154 6.3242 11.979 13.1367 11.5376 2.708-.1753 5.1475-1.2197 7.0869-2.8306 1.9395 1.6108 4.3789 2.6553 7.0869 2.8306 6.8115.4414 12.6953-4.7222 13.1367-11.5376l5.4453-84.0264c1.1934.8853 2.6426 1.4541 4.2363 1.5581.1777.0117.3535.0176.5293.0176 4.1807 0 7.6982-3.2476 7.9746-7.479 4.2521-65.0596-10.4598-80.5767-13.452-83.0264z"/><circle cx="510.592" cy="135.725" r="22.5"/><path d="m301.808 218.6353c-1.8683.0564-3.7335.6979-5.2921 1.9734-3.2844 2.689-19.4331 19.7214-14.7659 91.1348.3033 4.6447 4.1644 8.2094 8.7534 8.2094.1929 0 .3859-.0065.5809-.0193 1.7484-.1141 3.3391-.738 4.649-1.7097l5.9771 92.2318c.4845 7.481 6.9419 13.1488 14.4197 12.6643 2.9724-.1924 5.6501-1.3389 7.7791-3.1071 2.1288 1.7682 4.8064 2.9147 7.7789 3.1071 7.4767.4845 13.9352-5.1833 14.4196-12.6643l5.9772-92.2324c1.3099.9717 2.9006 1.5962 4.65 1.7103.1951.0128.3881.0193.5811.0193 4.5889 0 8.45-3.5647 8.7534-8.2094 4.6671-71.4133-11.4814-88.4458-14.7659-91.1348-1.5586-1.2755-3.4238-1.917-5.2922-1.9734-.2947-.031-.5938-.0487-.8982-.0487h-42.4078c-.3034 0-.6025.0177-.8973.0487z"/><ellipse cx="323.909" cy="187.635" rx="24.697" ry="24.697" transform="matrix(.707 -.707 .707 .707 -37.807 283.995)"/></g></svg>