<svg xmlns="http://www.w3.org/2000/svg" xml:space="preserve" width="687.866" height="704.496" style="shape-rendering:geometricPrecision;text-rendering:geometricPrecision;image-rendering:optimizeQuality;fill-rule:evenodd;clip-rule:evenodd" viewBox="0 0 182.004 186.404"><defs><style>.fil0{fill:#000}</style></defs><g id="Ebene_x0020_1"><path class="fil0" d="m72.601.2-.6.2-.8.4-1 .6-1 1-.6 1-.6 1.6 1.2 18-39.4.4L10.6 43.2l61.001 4.601 2.6 28-2.4-1.6a12.425 12.425 0 0 1-2.2-1.4c-.916-.523-2.05-1.05-2.8-1.8l-1.8-1.2-1.6-1-1.6-1-2-1.2-1.4-.8-1.6-1-4.2-2.4-1.8-1-3-1.4-2.8-1.4-1.6-.8-2.2-1-2.4-1-2.8-1-3.2-1-4.4-1-2.8-.4h-5.4l-1 .2-2 .4-1.6.4-1 .4-1.401.6-.6.4-1 .6-1.4 1-2 2c-.262.524-.672.745-1 1.2l-.6.8c-.1.138-.3.662-.4.8l-1.2 2-.8 1.6-.6 1.4-.8 2.6-.6 1.6-.4 1.8-.4 1.8-.4 2-.4 2.4-.4 3.4-.2 3.4v10.401l.2 3.4.4 3.8.4 2.6.2 1.6.4 2.2.6 3 .4 1.6.6 2.4.4 1.4.4 1.4.2.6.4 1.2c.292.585.353 1.203.6 1.8l.4 1.2.4 1 .2.601.4 1 .6 1.6.4.8.6 1.4.4.8.4.8.6 1.2.4.8.6 1.2.6 1.2 1 1.8.4.6.6 1 .4.6 1 1.6.8 1.2.8 1.2 1 1.4 1 1.4.8 1 1 1.2.6.8 1 1.2 3 3 1 .8 1 .6 1.2.6.8.4 1 .4 2.8.6H38l3.2-.6 1.2-.4 3-1.4 1.4-.8 1-.6 2.001-1.2 1.6-1.2 1.4-1 1.6-1.2 2.6-2.2 1-.8 2.4-2 2-1.8 2.2-2 2.2-1.8c.704-.703 1.89-1.955 2.2-2.2.1-.053.874-.82 1.4-1.2l1.2-1 .2-.2.2-.4v-.6l-.2-.2-5.8-.2-2.2-.4-1.8-.6-1-.6-1-.8-1-1-.8-1-1.2-2.2-1.2-3.4-.8-2.6-.6-3.2-.6-3.4-.6-2.6-.6-3.4-.6-3.2-.8-4v-2l.8-.8h2.6l2 .4 2.4.6c1.357.542 2.688.943 4 1.6l2.2 1 1.4.6.8.4c.807.58 2.086.885 2.8 1.6l2 1.2 2.2 1.6 2.4 2.4.8 1.6 1.4 13.6h23.401l1-10.4.6-2.6 1.2-2.2 2.4-2.4.8-.6c.69-.346 1.377-.933 2-1.4.81-.54 1.721-1.25 2.6-1.6 1.04-.52 1.991-1.096 3-1.6l1.8-.8c.757-.33 1.629-.718 2.4-1l1.8-.6 1-.4 2.4-.6 2-.4h2.601l.8.8v2c-.015.296-1.42 6.984-1.6 8l-.4 2.6-.4 2-.6 3.4-.4 1.8-.4 2-.6 2.2-.6 2-.8 1.8-.6 1.2-.6 1-.8 1-1 1-2 1.4-1.8.6-2.2.4-5.8.2-.2.2v.6l.2.4c.16.222 1.13.954 1.4 1.2l1 1 2 1.8 1 1 1.4 1.2 2.6 2.2 1.6 1.6 4.8 4 1.6 1.2 8.4 5.6s2.962 1.606 3.6 1.8l2 .6 2.4.4h5.6l2.8-.6c.245-.074 2.257-.918 2.4-1l2.2-1.6 3.6-3.6c1.182-1.18 2.016-2.615 3.2-3.8l1.4-2.2 3.4-5 2.4-4.2 1.4-2.6 1-2 1.2-2.8 1-2.4 1.4-3.8.801-2.4 1-3.4.8-3.6 1.2-5.6.2-1.6.4-2.6.2-2.2.4-5V85.201l-.2-3.4-.4-3.4-.4-2.4-.2-1.4-.4-1.8-.4-1.6-.2-.8-.4-1.2-.4-1.4c-.165-.484-.78-1.904-1-2.4l-1-2.2-1-1.8-1.2-1.8-2.2-2.4c-.22-.2-3.7-2.745-3.8-2.8l-2-.8-2-.6-3-.6h-5.4l-2.8.4-3.4.8-3 .8-3 1-2.397.978-2.404 1.021-3 1.4-4 2-4.8 2.6-1.4.8-7 4.2-1.8 1.2-3.2 2-4 2.6-3.2 2.2 2.6-28.8 61.6-4.6-19.2-19.6-40.019-.2 1.418-17.8-.6-1.8-.8-1.2-1.2-1.2-1.4-.8-.6-.2-1.4-.2h-33.6l-1.2.2z"/><path class="fil0" d="m51.201 175.604-.6 1v.6l.2.4.4.4.4.2.8.4.8.4 1.6.6 1 .4 2.4.6 1.8.2h1.6l1-.2.6-.4.8-.6 1.8-1.6c3.438-3.437 7.332-6.59 11-9.8l-.8 14v2.4l.2 1 .2.4.2.2.8.2h27.201l.8-.2.2-.2.2-.4.2-1v-2.4l-.8-14 12 10.6.8.8.8.6.6.4 1 .2h1.6l1.8-.2 1.601-.4 1.8-.6 1-.4.6-.2.8-.4.8-.4.4-.2.4-.4.2-.4v-.6c0 .3-29.401-43.8-29.4-43.8H80.001l-28.8 42.8z"/></g></svg>
