<?xml version="1.0" encoding="iso-8859-1"?>
<!-- Generator: Adobe Illustrator 19.0.0, SVG Export Plug-In . SVG Version: 6.00 Build 0)  -->
<svg version="1.1" id="Capa_1" xmlns="http://www.w3.org/2000/svg" xmlns:xlink="http://www.w3.org/1999/xlink" x="0px" y="0px"
	 viewBox="0 0 512 512" style="enable-background:new 0 0 512 512;" xml:space="preserve">
<g>
	<g>
		<path d="M448,281.6h-25.6c-7.68,0-12.8,5.12-12.8,12.8v115.2h51.2V294.4C460.8,286.72,455.68,281.6,448,281.6z"/>
	</g>
</g>
<g>
	<g>
		<path d="M345.6,230.4H320c-7.68,0-12.8,5.12-12.8,12.8v166.4h51.2V243.2C358.4,235.52,353.28,230.4,345.6,230.4z"/>
	</g>
</g>
<g>
	<g>
		<path d="M243.2,179.2h-25.6c-7.68,0-12.8,5.12-12.8,12.8v217.6H256V192C256,184.32,250.88,179.2,243.2,179.2z"/>
	</g>
</g>
<g>
	<g>
		<path d="M140.8,102.4h-25.6c-7.68,0-12.8,5.12-12.8,12.8v294.4h51.2V115.2C153.6,107.52,148.48,102.4,140.8,102.4z"/>
	</g>
</g>
<g>
	<g>
		<path d="M486.4,460.8H51.2V25.6C51.2,10.24,40.96,0,25.6,0C10.24,0,0,10.24,0,25.6v460.8C0,501.76,10.24,512,25.6,512h460.8
			c15.36,0,25.6-10.24,25.6-25.6C512,471.04,501.76,460.8,486.4,460.8z"/>
	</g>
</g>
<g>
</g>
<g>
</g>
<g>
</g>
<g>
</g>
<g>
</g>
<g>
</g>
<g>
</g>
<g>
</g>
<g>
</g>
<g>
</g>
<g>
</g>
<g>
</g>
<g>
</g>
<g>
</g>
<g>
</g>
</svg>
