<svg xmlns="http://www.w3.org/2000/svg" xml:space="preserve" viewBox="0 0 512.018 512.018"><path d="M6.98 256.673c-5.504 2.027-8.341 8.128-6.336 13.653l6.699 18.432L58.35 237.75zM55.257 420.513l30.72 84.48a10.57 10.57 0 0 0 5.525 6.016 10.73 10.73 0 0 0 4.501 1.003c1.259 0 2.496-.213 3.691-.661l33.899-12.501zM511.364 348.385l-35.157-96.661-84.373 84.373 41.813-15.403c5.483-2.091 11.669.768 13.696 6.315 2.048 5.525-.789 11.669-6.315 13.696l-53.12 19.584a10.617 10.617 0 0 1-3.691.661c-4.331 0-8.427-2.667-10.005-6.976-.021-.064 0-.128-.021-.192l-89.408 89.408 220.245-81.152c5.525-2.026 8.362-8.128 6.336-13.653M508.889 173.793 338.222 3.126c-4.16-4.16-10.923-4.16-15.083 0l-320 320c-4.16 4.16-4.16 10.923 0 15.083l170.667 170.667a10.56 10.56 0 0 0 7.531 3.136c2.731 0 5.461-1.045 7.552-3.115l320-320a10.7 10.7 0 0 0 0-15.104m-384 121.771L82.222 338.23a10.716 10.716 0 0 1-15.104 0c-4.16-4.16-4.16-10.923 0-15.083l42.667-42.667c4.16-4.16 10.923-4.16 15.083 0 4.16 4.161 4.181 10.902.021 15.084m184.213 13.546c-7.552 7.552-17.813 11.179-29.227 11.179-18.859 0-40.896-9.877-59.328-28.331-13.483-13.483-22.955-29.611-26.645-45.397-4.096-17.6-.725-32.917 9.493-43.157 10.219-10.24 25.536-13.611 43.157-9.493 15.787 3.691 31.915 13.141 45.397 26.645 29.633 29.61 37.185 68.522 17.153 88.554m135.787-120.213-42.667 42.667a10.716 10.716 0 0 1-15.104 0c-4.16-4.16-4.16-10.923 0-15.083l42.667-42.667c4.16-4.16 10.923-4.16 15.083 0s4.181 10.902.021 15.083"/></svg>