<svg viewBox="0 0 60 60" width="480" height="480" xmlns="http://www.w3.org/2000/svg"><path d="m59.707 8.293-8-8A1 1 0 0 0 51 0H5a5.006 5.006 0 0 0-5 5v50a5.006 5.006 0 0 0 5 5h50a5.006 5.006 0 0 0 5-5V9a1 1 0 0 0-.293-.707ZM46 2v16a1 1 0 0 1-1 1H15a1 1 0 0 1-1-1V2ZM8 58V33a3 3 0 0 1 3-3h38a3 3 0 0 1 3 3v25zm50-3a3 3 0 0 1-3 3h-1V33a5.006 5.006 0 0 0-5-5H11a5.006 5.006 0 0 0-5 5v25H5a3 3 0 0 1-3-3V5a3 3 0 0 1 3-3h7v16a3 3 0 0 0 3 3h30a3 3 0 0 0 3-3V2h2.586L58 9.414Z"/><path d="M37 17h6a1 1 0 0 0 1-1V5a1 1 0 0 0-1-1h-6a1 1 0 0 0-1 1v11a1 1 0 0 0 1 1zm1-11h4v9h-4zM45 43H15a1 1 0 0 0 0 2h30a1 1 0 0 0 0-2zM45 37H15a1 1 0 0 0 0 2h30a1 1 0 0 0 0-2zM45 49H15a1 1 0 0 0 0 2h30a1 1 0 0 0 0-2z"/></svg>