<svg xmlns="http://www.w3.org/2000/svg" viewBox="0 0 503.592 503.592" style="enable-background:new 0 0 503.592 503.592" xml:space="preserve"><path d="M428.636 27.852C428.636 12.508 416.144 0 400.792 0H102.66C87.312 0 74.828 12.504 74.828 27.852l.132 447.892c0 15.352 12.488 27.848 27.832 27.848h298.136c15.352 0 27.836-12.496 27.836-27.848l-.128-447.892zm-196.276 3.62h38.884c4.36 0 7.868 3.52 7.868 7.868a7.863 7.863 0 0 1-7.868 7.872H232.36c-4.348 0-7.868-3.524-7.868-7.872s3.52-7.868 7.868-7.868zm-29.396 2.44c2.916-2.948 8.184-2.948 11.136 0 1.452 1.46 2.324 3.504 2.324 5.552 0 2.08-.872 4.084-2.324 5.544-1.46 1.496-3.504 2.324-5.584 2.324a7.747 7.747 0 0 1-5.552-2.324c-1.452-1.456-2.316-3.464-2.316-5.544 0-2.048.868-4.092 2.316-5.552zm47.252 454.216c-12.98 0-23.544-10.564-23.544-23.544 0-12.984 10.568-23.548 23.544-23.548 12.988 0 23.544 10.564 23.544 23.548s-10.552 23.544-23.544 23.544zM94.424 424.904V74.752h314.744v350.152H94.424z"/></svg>