<?xml version="1.0" encoding="iso-8859-1"?><svg xmlns="http://www.w3.org/2000/svg" xmlns:xlink="http://www.w3.org/1999/xlink"><symbol viewBox="0 0 512 512" id="loss" xmlns="http://www.w3.org/2000/svg"><path d="M448 281.6h-25.6c-7.68 0-12.8 5.12-12.8 12.8v115.2h51.2V294.4c0-7.68-5.12-12.8-12.8-12.8zM345.6 230.4H320c-7.68 0-12.8 5.12-12.8 12.8v166.4h51.2V243.2c0-7.68-5.12-12.8-12.8-12.8zM243.2 179.2h-25.6c-7.68 0-12.8 5.12-12.8 12.8v217.6H256V192c0-7.68-5.12-12.8-12.8-12.8zM140.8 102.4h-25.6c-7.68 0-12.8 5.12-12.8 12.8v294.4h51.2V115.2c0-7.68-5.12-12.8-12.8-12.8z"/><path d="M486.4 460.8H51.2V25.6C51.2 10.24 40.96 0 25.6 0 10.24 0 0 10.24 0 25.6v460.8C0 501.76 10.24 512 25.6 512h460.8c15.36 0 25.6-10.24 25.6-25.6 0-15.36-10.24-25.6-25.6-25.6z"/></symbol><symbol viewBox="0 0 512 512" id="user" xmlns="http://www.w3.org/2000/svg"><path d="M0 435.2V512h512v-76.8c0-171.52-512-171.52-512 0z"/><circle cx="256" cy="128" r="128"/></symbol></svg>