<?xml version="1.0" encoding="utf-8"?><svg xmlns="http://www.w3.org/2000/svg" xmlns:xlink="http://www.w3.org/1999/xlink"><symbol viewBox="0 0 20 20" id="check" xmlns="http://www.w3.org/2000/svg"><path d="M0 11l2-2 5 5L18 3l2 2L7 18z"/></symbol><symbol viewBox="0 0 20 20" id="close" xmlns="http://www.w3.org/2000/svg"><path d="M10 8.586L2.929 1.515 1.515 2.929 8.586 10l-7.071 7.071 1.414 1.414L10 11.414l7.071 7.071 1.414-1.414L11.414 10l7.071-7.071-1.414-1.414L10 8.586z"/></symbol><symbol viewBox="0 0 512 512" id="loss" xmlns="http://www.w3.org/2000/svg"><path d="M448 281.6h-25.6c-7.68 0-12.8 5.12-12.8 12.8v115.2h51.2V294.4c0-7.68-5.12-12.8-12.8-12.8zM345.6 230.4H320c-7.68 0-12.8 5.12-12.8 12.8v166.4h51.2V243.2c0-7.68-5.12-12.8-12.8-12.8zM243.2 179.2h-25.6c-7.68 0-12.8 5.12-12.8 12.8v217.6H256V192c0-7.68-5.12-12.8-12.8-12.8zM140.8 102.4h-25.6c-7.68 0-12.8 5.12-12.8 12.8v294.4h51.2V115.2c0-7.68-5.12-12.8-12.8-12.8z"/><path d="M486.4 460.8H51.2V25.6C51.2 10.24 40.96 0 25.6 0 10.24 0 0 10.24 0 25.6v460.8C0 501.76 10.24 512 25.6 512h460.8c15.36 0 25.6-10.24 25.6-25.6 0-15.36-10.24-25.6-25.6-25.6z"/></symbol><symbol viewBox="0 0 512 512" id="money" xmlns="http://www.w3.org/2000/svg"><path d="M330.24 94.72l46.08-53.76C391.68 25.6 381.44 0 358.4 0H153.6c-23.04 0-33.28 25.6-20.48 40.96l46.08 53.76C76.8 145.92 0 289.28 0 386.56 0 506.88 115.2 512 256 512s256-5.12 256-125.44c0-97.28-76.8-240.64-181.76-291.84zM256 281.6c10.24 0 17.92 2.56 25.6 5.12 30.72 10.24 51.2 38.4 51.2 71.68 0 33.28-20.48 61.44-51.2 71.68v30.72h-51.2v-30.72c-30.72-10.24-51.2-38.4-51.2-71.68h51.2c0 15.36 10.24 25.6 25.6 25.6s25.6-10.24 25.6-25.6c0-15.36-10.24-25.6-25.6-25.6-10.24 0-17.92-2.56-25.6-5.12-30.72-10.24-51.2-38.4-51.2-71.68 0-33.28 20.48-61.44 51.2-71.68V153.6h51.2v30.72c30.72 10.24 51.2 38.4 51.2 71.68h-51.2c0-15.36-10.24-25.6-25.6-25.6s-25.6 10.24-25.6 25.6 10.24 25.6 25.6 25.6z"/></symbol><symbol viewBox="0 0 512 512" id="pencil" xmlns="http://www.w3.org/2000/svg"><path d="M51.2 353.28L0 512l158.72-51.2zM87.16 316.492L336.96 66.69l108.61 108.61L195.77 425.102zM504.32 79.36L432.64 7.68c-10.24-10.24-25.6-10.24-35.84 0l-23.04 23.04 107.52 107.52 23.04-23.04c10.24-10.24 10.24-25.6 0-35.84z"/></symbol><symbol viewBox="0 0 512 512" id="user" xmlns="http://www.w3.org/2000/svg"><path d="M0 435.2V512h512v-76.8c0-171.52-512-171.52-512 0z"/><circle cx="256" cy="128" r="128"/></symbol></svg>